<svg width="660" height="660" viewBox="0 0 660 660" fill="none" xmlns="http://www.w3.org/2000/svg">
<g clip-path="url(#clip0_1292_1274)">
<rect width="660" height="660" fill="white"/>
<path d="M0 324.832C0.761141 315.706 1.28528 306.553 2.31952 297.457C14.8207 187.522 68.7309 103.806 162.598 45.7908C198.879 23.3667 238.625 9.43419 280.763 3.63201C379.959 -10.0265 468.696 14.727 545.135 79.7762C602.448 128.549 639.239 190.418 653.365 264.349C673.357 368.988 648.997 463.114 580.014 544.521C531.23 602.089 468.901 637.955 394.846 652.85C380.8 655.675 366.383 656.657 352.141 658.515C349.579 658.849 347.032 659.307 344.478 659.708H315.671C313.724 659.331 311.79 658.73 309.826 658.611C262.731 655.771 217.921 644.086 176.667 621.213C74.4923 564.564 15.9705 478.135 2.32283 361.798C1.25683 352.711 0.760889 343.557 0 334.434C0 331.233 0 328.033 0 324.832ZM33.7489 329.905C34.2675 494.219 167.332 626.597 331.513 626.132C494.904 625.67 627.275 492.288 626.676 328.715C626.075 164.619 493.242 32.6649 329.117 33.1249C166.066 33.5819 33.2349 167.048 33.7489 329.905Z" fill="#007AFF"/>
<path d="M328.02 171.317C327.818 202.758 302.399 227.768 270.853 227.564C240.039 227.366 214.686 201.495 214.97 170.54C215.255 139.477 240.696 114.533 271.933 114.693C303.129 114.853 328.22 140.184 328.02 171.317Z" fill="#007AFF"/>
<path d="M495.684 244.94C495.686 268.346 476.806 287.4 453.51 287.502C430.182 287.605 410.523 267.942 410.73 244.716C410.937 221.557 430.264 202.448 453.435 202.491C476.7 202.534 495.682 221.606 495.684 244.94Z" fill="#007AFF"/>
<path d="M184.752 315.422C184.743 338.552 165.545 357.831 142.386 357.967C119.127 358.104 99.577 338.444 99.7444 315.086C99.9117 291.724 118.908 273.039 142.42 273.11C165.84 273.181 184.761 292.093 184.752 315.422Z" fill="#007AFF"/>
<path d="M271.167 480.863C294.857 480.814 314.172 500.046 313.897 523.41C313.624 546.63 294.305 565.839 271.299 565.765C248.063 565.69 229.111 546.602 229.079 523.241C229.047 499.661 247.667 480.912 271.167 480.863Z" fill="#007AFF"/>
<path d="M536.715 450.406C536.707 473.839 517.851 492.781 494.501 492.813C471.164 492.845 452.229 474.07 451.96 450.631C451.693 427.305 471.212 407.699 494.579 407.824C517.866 407.948 536.723 427.004 536.715 450.406Z" fill="#007AFF"/>
<path d="M365.177 364.904C365.016 388.226 345.825 407.344 322.715 407.203C299.447 407.06 280.492 387.996 280.447 364.689C280.401 340.993 299.393 322.195 323.225 322.346C346.644 322.494 365.34 341.459 365.177 364.904Z" fill="#007AFF"/>
</g>
<defs>
<clipPath id="clip0_1292_1274">
<rect width="660" height="660" fill="white"/>
</clipPath>
</defs>
</svg>
