<svg width="660" height="660" viewBox="0 0 660 660" fill="none" xmlns="http://www.w3.org/2000/svg">
<g clip-path="url(#clip0_1292_1312)">
<rect width="660" height="660" fill="white"/>
<path d="M323.557 663.906C313.189 662.703 302.799 661.665 292.456 660.27C243.518 653.669 198.287 636.725 156.895 610.019C79.4349 560.041 30.494 489.541 8.58927 400.28C-0.748326 362.23 -2.09073 323.56 2.71805 284.675C11.0736 217.109 36.5783 156.87 81.0035 105.215C127.531 51.1145 185.532 14.7922 254.709 -3.3054C266.575 -6.4096 277.667 1.22223 276.448 12.9785C271.56 60.1202 311.603 99.8963 356.509 109.059C360.525 109.879 364.591 110.47 368.587 111.372C382.213 114.447 386.959 126.993 379.581 138.827C370.598 153.233 360.411 167.242 353.848 182.737C334.384 228.689 332.725 276.116 351.383 322.434C377.242 386.626 423.502 429.089 492.622 442.554C539.272 451.642 584.121 444.762 625.539 420.165C628.009 418.698 630.428 417.143 632.917 415.71C640.716 411.218 647.544 411.389 653.555 416.174C659.694 421.06 661.597 428.336 658.617 436.727C647.773 467.264 633.004 495.787 613.942 521.996C564.141 590.472 498.163 635.041 415.682 654.392C397.8 658.587 379.261 659.989 361.023 662.665C357.993 663.11 354.954 663.494 351.919 663.906H323.557ZM607.923 466.499C606.238 466.956 604.898 467.224 603.624 467.678C569.714 479.765 534.719 483.3 499.272 478.431C442.712 470.661 395.684 444.589 358.355 401.301C356.007 398.578 353.99 397.099 350.096 397.735C331.48 400.777 313.712 391.669 304.942 374.948C296.333 358.533 298.694 339.303 311.405 325.889C314.056 323.09 314.472 320.823 313.467 317.308C305.531 289.565 302.958 261.327 306.227 232.616C307.008 225.756 307.961 218.917 308.849 211.964C272.262 216.842 248.067 205.306 236.991 177.895C231.89 165.269 231.191 152.301 235.207 139.331C241.247 119.825 254.79 107.272 274.026 100.094C257.162 81.3654 246.69 60.3906 243.13 36.1557C141.821 65.6842 35.0243 173.908 34.1008 322.527C33.1207 480.28 150.884 602.99 288.444 625.427C431.861 648.82 556.478 568.937 607.923 466.499Z" fill="#007AFF"/>
<path d="M609.929 181.766C590.494 181.773 574.626 166.093 574.463 146.719C574.3 127.25 590.49 111.193 610.167 111.309C629.575 111.423 645.36 127.298 645.308 146.649C645.257 165.909 629.288 181.758 609.929 181.766Z" fill="#007AFF"/>
<path d="M466.502 247.14C450.545 247.207 437.992 234.681 438.048 218.748C438.103 203.152 450.608 190.548 466.122 190.452C481.706 190.355 494.907 203.48 494.819 218.983C494.732 234.415 482 247.075 466.502 247.14Z" fill="#007AFF"/>
<path d="M514.721 315.373C514.823 305.682 522.755 297.817 532.364 297.881C541.771 297.944 549.997 306.198 550.029 315.605C550.061 325.288 541.574 333.551 531.826 333.325C522.197 333.102 514.619 325.149 514.721 315.373Z" fill="#007AFF"/>
<path d="M201.454 304.642C201.391 328.481 181.593 348.172 157.791 348.069C134.085 347.966 114.196 328.032 114.188 304.366C114.18 280.344 134.204 260.582 158.384 260.747C182.294 260.911 201.517 280.503 201.454 304.642Z" fill="#007AFF"/>
<path d="M290.384 561.454C266.17 561.363 246.946 541.676 247.117 517.144C247.281 493.506 266.747 474.186 290.457 474.127C314.476 474.067 334.671 494.319 334.345 518.139C334.018 541.965 314.149 561.543 290.384 561.454Z" fill="#007AFF"/>
</g>
<defs>
<clipPath id="clip0_1292_1312">
<rect width="660" height="660" fill="white"/>
</clipPath>
</defs>
</svg>
