<svg width="432" height="83" viewBox="0 0 432 83" fill="none" xmlns="http://www.w3.org/2000/svg">
<path d="M30.8275 73.1727L392.926 82.3928C414.343 82.9381 432 65.7252 432 44.301C432 29.4412 423.361 15.9371 409.871 9.70726L399.125 4.74535C386.478 -1.09473 371.741 -0.173588 359.92 7.19582C347.297 15.0648 331.42 15.5468 318.343 8.45806L313.044 5.58505C301.437 -0.706917 287.328 -0.197883 276.205 6.91419L274.538 7.9799C263.221 15.2157 248.666 14.9471 237.624 7.29855C227.111 0.0162802 213.356 -0.604402 202.23 5.70133L195.22 9.67374C184.269 15.8804 170.657 14.8825 160.728 7.14498C151.473 -0.0671639 138.949 -1.46428 128.332 3.53096L111.882 11.2708C100.626 16.5664 87.336 14.9798 77.6434 7.18319C68.5718 -0.113915 56.2922 -2.00675 45.4442 2.21989L20.1487 12.0757C7.99989 16.8092 0 28.5118 0 41.5502C0 58.7068 13.6765 72.7359 30.8275 73.1727Z" fill="url(#paint0_linear_293_2336)"/>
<defs>
<linearGradient id="paint0_linear_293_2336" x1="215.508" y1="5.54154" x2="215.508" y2="93.5415" gradientUnits="userSpaceOnUse">
<stop stop-color="#020AD4"/>
<stop offset="1" stop-color="#9B9FFF"/>
</linearGradient>
</defs>
</svg>
