<svg width="20" height="20" viewBox="0 0 20 20" fill="none" xmlns="http://www.w3.org/2000/svg">
<path d="M1.66656 7.50002V5.83335C1.66656 3.33335 3.33323 1.66669 5.83323 1.66669H14.1666C16.6666 1.66669 18.3332 3.33335 18.3332 5.83335V7.50002" stroke="#4B5563" stroke-width="1.5" stroke-miterlimit="10" stroke-linecap="round" stroke-linejoin="round"/>
<path d="M1.66656 12.5V14.1667C1.66656 16.6667 3.33323 18.3333 5.83323 18.3333H14.1666C16.6666 18.3333 18.3332 16.6667 18.3332 14.1667V12.5" stroke="#4B5563" stroke-width="1.5" stroke-miterlimit="10" stroke-linecap="round" stroke-linejoin="round"/>
<path d="M5.58325 7.71667L9.99992 10.275L14.3832 7.73336" stroke="#4B5563" stroke-width="1.5" stroke-linecap="round" stroke-linejoin="round"/>
<path d="M10 14.8085V10.2668" stroke="#4B5563" stroke-width="1.5" stroke-linecap="round" stroke-linejoin="round"/>
<path d="M8.96661 5.24174L6.29994 6.72509C5.69994 7.05843 5.19995 7.90009 5.19995 8.59175V11.4168C5.19995 12.1084 5.69161 12.9501 6.29994 13.2834L8.96661 14.7667C9.53327 15.0834 10.4666 15.0834 11.0416 14.7667L13.7083 13.2834C14.3083 12.9501 14.8083 12.1084 14.8083 11.4168V8.59175C14.8083 7.90009 14.3166 7.05843 13.7083 6.72509L11.0416 5.24174C10.4666 4.91674 9.53327 4.91674 8.96661 5.24174Z" stroke="#4B5563" stroke-width="1.5" stroke-linecap="round" stroke-linejoin="round"/>
</svg>
