<svg width="660" height="660" viewBox="0 0 660 660" fill="none" xmlns="http://www.w3.org/2000/svg">
<g clip-path="url(#clip0_1292_1330)">
<rect width="660" height="660" fill="white"/>
<path d="M308.118 661.026C297.065 659.42 285.951 658.155 274.971 656.156C196.619 641.889 131.243 604.77 79.4442 544.257C47.9034 507.41 25.5193 465.53 12.3278 418.812C9.42159 408.52 11.2834 401.3 17.9405 396.76C24.7367 392.126 32.163 392.934 40.4817 399.435C70.1628 422.631 103.252 438.517 140.451 445.082C212.421 457.784 277.037 441.278 333.999 395.406C338.983 391.391 343.562 386.87 348.3 382.553C357.749 373.943 366.991 374.157 375.371 383.872C397.014 408.962 422.886 428.087 454.431 438.554C509.915 456.965 563.186 452.011 613.851 422.055C618.624 419.232 624.477 416.721 629.826 416.725C638.588 416.731 642.707 423.605 645 431.399V435.006C644.848 435.136 644.611 435.238 644.556 435.401C630.162 477.986 608.024 516.117 578.143 549.67C524.72 609.659 458.001 645.246 378.673 657.404C369.62 658.792 360.513 659.827 351.431 661.026L308.118 661.026ZM60.9678 453.065C67.2175 479.928 110.944 535.852 149.788 565.827C207.763 610.565 273.656 630.58 346.593 627.32C398.891 624.982 447.084 609.204 491.092 580.859C534.948 552.612 569.362 515.734 594.156 468.826C505.011 498.144 427.696 479.535 360.604 417.73C267.581 490.592 167.834 502.176 60.9678 453.065Z" fill="#007AFF"/>
<path d="M177.482 384.453C160.483 384.376 146.044 369.817 146.241 352.952C146.442 335.723 160.552 321.88 177.846 321.943C195.02 322.005 209.342 336.351 209.173 353.322C209.005 370.275 194.494 384.53 177.482 384.453Z" fill="#007AFF"/>
<path d="M338.446 210.164C351.634 210.142 362.164 220.463 362.284 233.529C362.407 246.879 351.773 257.797 338.571 257.877C325.655 257.956 314.267 246.492 314.497 233.643C314.731 220.629 325.382 210.186 338.446 210.164Z" fill="#007AFF"/>
<path d="M480.537 336.537C488.874 337.055 495.089 344.247 494.565 352.771C494.055 361.084 486.827 367.102 478.146 366.444C470.179 365.841 463.988 358.478 464.633 350.374C465.271 342.347 472.521 336.038 480.537 336.537Z" fill="#007AFF"/>
<path d="M326.378 518.906C326.404 542.39 307.599 561.262 284.116 561.321C260.595 561.38 241.718 542.78 241.42 519.252C241.124 495.868 260.639 476.225 284.071 476.322C307.37 476.419 326.353 495.527 326.378 518.906Z" fill="#007AFF"/>
</g>
<defs>
<clipPath id="clip0_1292_1330">
<rect width="660" height="660" fill="white"/>
</clipPath>
</defs>
</svg>
