<svg width="24" height="24" viewBox="0 0 24 24" fill="none" xmlns="http://www.w3.org/2000/svg">
<path opacity="0.08" d="M17 16H7.00004C6.91253 15.9995 6.82669 15.976 6.7511 15.9319C6.67551 15.8878 6.61281 15.8246 6.56929 15.7487C6.52576 15.6728 6.50292 15.5868 6.50305 15.4992C6.50319 15.4117 6.52629 15.3258 6.57004 15.25C6.98192 14.5375 7.50004 12.7381 7.50004 10.5C7.50004 9.30653 7.97415 8.16193 8.81806 7.31802C9.66198 6.47411 10.8066 6 12 6C13.1935 6 14.3381 6.47411 15.182 7.31802C16.0259 8.16193 16.5 9.30653 16.5 10.5C16.5 12.7387 17.0188 14.5375 17.4313 15.25C17.4751 15.3259 17.4982 15.4119 17.4983 15.4996C17.4984 15.5872 17.4754 15.6733 17.4317 15.7492C17.3881 15.8252 17.3252 15.8883 17.2494 15.9324C17.1737 15.9764 17.0877 15.9997 17 16Z" fill="black"/>
<path d="M17.8625 14.9963C17.5156 14.3988 17 12.7081 17 10.5C17 9.17392 16.4732 7.90215 15.5355 6.96447C14.5979 6.02678 13.3261 5.5 12 5.5C10.6739 5.5 9.40216 6.02678 8.46447 6.96447C7.52679 7.90215 7.00001 9.17392 7.00001 10.5C7.00001 12.7087 6.48376 14.3988 6.13688 14.9963C6.0483 15.1482 6.00134 15.3207 6.00074 15.4966C6.00013 15.6724 6.04591 15.8453 6.13344 15.9978C6.22098 16.1503 6.34718 16.277 6.49932 16.3652C6.65146 16.4534 6.82417 16.4999 7.00001 16.5H9.55063C9.66599 17.0645 9.97277 17.5718 10.4191 17.9361C10.8654 18.3004 11.4239 18.4994 12 18.4994C12.5761 18.4994 13.1346 18.3004 13.5809 17.9361C14.0272 17.5718 14.334 17.0645 14.4494 16.5H17C17.1758 16.4998 17.3484 16.4532 17.5005 16.365C17.6525 16.2768 17.7786 16.15 17.8661 15.9975C17.9536 15.845 17.9993 15.6722 17.9987 15.4964C17.998 15.3206 17.9511 15.1481 17.8625 14.9963ZM12 17.5C11.6899 17.4999 11.3874 17.4037 11.1343 17.2246C10.8811 17.0455 10.6896 16.7924 10.5863 16.5H13.4138C13.3104 16.7924 13.1189 17.0455 12.8658 17.2246C12.6126 17.4037 12.3101 17.4999 12 17.5ZM7.00001 15.5C7.48126 14.6725 8.00001 12.755 8.00001 10.5C8.00001 9.43913 8.42144 8.42172 9.17158 7.67157C9.92173 6.92143 10.9391 6.5 12 6.5C13.0609 6.5 14.0783 6.92143 14.8284 7.67157C15.5786 8.42172 16 9.43913 16 10.5C16 12.7531 16.5175 14.6706 17 15.5H7.00001Z" fill="black"/>
</svg>
