<svg width="40" height="40" viewBox="0 0 40 40" fill="none" xmlns="http://www.w3.org/2000/svg">
<rect width="40" height="40" rx="8" fill="white"/>
<path d="M29.598 19.064C29.4777 18.9732 29.3384 18.9105 29.1906 18.8808C29.0428 18.851 28.8902 18.8548 28.744 18.892C28.5017 18.9597 28.2516 18.996 28 19C26.346 19 25 17.654 24.997 16.063C25.002 16.029 25.013 15.927 25.014 15.893C25.0205 15.7367 24.9902 15.581 24.9255 15.4385C24.8608 15.2961 24.7634 15.1708 24.6414 15.0729C24.5193 14.975 24.376 14.9072 24.2229 14.8749C24.0698 14.8426 23.9112 14.8467 23.76 14.887C23.5127 14.9575 23.2572 14.9955 23 15C21.346 15 20 13.654 20 12C20 11.783 20.031 11.556 20.099 11.284C20.1375 11.1287 20.1382 10.9665 20.101 10.8109C20.0638 10.6553 19.9899 10.511 19.8854 10.3899C19.7808 10.2688 19.6488 10.1746 19.5003 10.1151C19.3518 10.0556 19.1912 10.0326 19.032 10.048C16.5555 10.2788 14.255 11.4283 12.5835 13.2701C10.9119 15.1119 9.99028 17.5127 10 20C10 25.514 14.486 30 20 30C25.514 30 30 25.514 30 20C30 19.951 29.997 19.903 29.993 19.84C29.9897 19.6893 29.9524 19.5413 29.884 19.4069C29.8156 19.2726 29.7179 19.1554 29.598 19.064ZM20 28C15.589 28 12 24.411 12 20C11.9929 18.2233 12.5802 16.4952 13.6686 15.0908C14.7569 13.6865 16.2837 12.6865 18.006 12.25C18.0716 13.5307 18.6262 14.7375 19.5554 15.6213C20.4846 16.5051 21.7176 16.9986 23 17L23.101 16.999C23.3305 18.1172 23.9352 19.1235 24.8149 19.851C25.6947 20.5785 26.7966 20.9835 27.938 20.999C27.444 24.941 24.073 28 20 28Z" fill="#AC2734"/>
<path d="M20.5 21C21.3284 21 22 20.3284 22 19.5C22 18.6716 21.3284 18 20.5 18C19.6716 18 19 18.6716 19 19.5C19 20.3284 19.6716 21 20.5 21Z" fill="#AC2734"/>
<path d="M16.5 18C17.3284 18 18 17.3284 18 16.5C18 15.6716 17.3284 15 16.5 15C15.6716 15 15 15.6716 15 16.5C15 17.3284 15.6716 18 16.5 18Z" fill="#AC2734"/>
<path d="M15.5 22C16.3284 22 17 21.3284 17 20.5C17 19.6716 16.3284 19 15.5 19C14.6716 19 14 19.6716 14 20.5C14 21.3284 14.6716 22 15.5 22Z" fill="#AC2734"/>
<path d="M23.5 25C24.3284 25 25 24.3284 25 23.5C25 22.6716 24.3284 22 23.5 22C22.6716 22 22 22.6716 22 23.5C22 24.3284 22.6716 25 23.5 25Z" fill="#AC2734"/>
<path d="M18.5 26C19.3284 26 20 25.3284 20 24.5C20 23.6716 19.3284 23 18.5 23C17.6716 23 17 23.6716 17 24.5C17 25.3284 17.6716 26 18.5 26Z" fill="#AC2734"/>
</svg>
