<svg width="24" height="24" viewBox="0 0 24 24" fill="none" xmlns="http://www.w3.org/2000/svg">
<rect width="24" height="24" rx="12" fill="white"/>
<path d="M12.0007 5.33325C8.32465 5.33325 5.33398 8.32392 5.33398 11.9999C5.33398 15.6759 8.32465 18.6666 12.0007 18.6666C15.6767 18.6666 18.6673 15.6759 18.6673 11.9999C18.6673 8.32392 15.6767 5.33325 12.0007 5.33325ZM17.288 11.3333H15.4453C15.3631 9.87408 14.9548 8.4519 14.2507 7.17125C15.0668 7.55262 15.7732 8.13418 16.3043 8.86186C16.8353 9.58953 17.1737 10.4397 17.288 11.3333ZM12.354 6.68459C13.044 7.59392 13.972 9.20459 14.1053 11.3333H10.0207C10.1133 9.60259 10.6833 7.98125 11.6547 6.68392C11.7693 6.67725 11.884 6.66659 12.0007 6.66659C12.12 6.66659 12.2367 6.67725 12.354 6.68459ZM9.79265 7.15125C9.13665 8.41192 8.75798 9.84125 8.68732 11.3333H6.71332C6.8285 10.4318 7.17174 9.57465 7.71058 8.84286C8.24942 8.11107 8.96604 7.52884 9.79265 7.15125ZM6.71332 12.6666H8.69598C8.78665 14.2526 9.13932 15.6519 9.73332 16.8199C8.92145 16.4372 8.21914 15.856 7.69129 15.1301C7.16344 14.4042 6.82709 13.5569 6.71332 12.6666ZM11.634 17.3153C10.7 16.1833 10.1487 14.5973 10.028 12.6666H14.1033C13.9647 14.5153 13.3587 16.1306 12.368 17.3146C12.2467 17.3226 12.1253 17.3333 12.0007 17.3333C11.8767 17.3333 11.756 17.3226 11.634 17.3153ZM14.308 16.8006C14.9447 15.6046 15.3333 14.1999 15.4353 12.6666H17.2873C17.1748 13.5494 16.8433 14.3901 16.3229 15.1122C15.8026 15.8342 15.1099 16.4146 14.308 16.8006Z" fill="#4B5563"/>
</svg>
