<svg width="22" height="22" viewBox="0 0 22 22" fill="none" xmlns="http://www.w3.org/2000/svg">
<path d="M11 0.25C16.9273 0.25 21.75 5.07267 21.75 11C21.75 16.9273 16.9273 21.75 11 21.75C5.07267 21.75 0.25 16.9273 0.25 11C0.25 5.07267 5.07267 0.25 11 0.25ZM9.86914 2.02832C5.41332 2.58827 1.9502 6.39266 1.9502 11C1.9502 15.9902 6.00983 20.0498 11 20.0498C12.3113 20.0485 13.6067 19.7606 14.7949 19.2061L15.0508 19.0869L14.9014 18.8467L10.2793 11.4512L10.2783 11.4502C10.282 11.456 10.2818 11.4586 10.2764 11.4443C10.2749 11.4405 10.2695 11.4248 10.2656 11.415C10.2609 11.403 10.2546 11.3872 10.2461 11.3701L10.2441 11.3672L10.2051 11.2783C10.1823 11.2181 10.1658 11.1556 10.1572 11.0918L10.1504 10.9951V1.99219L9.86914 2.02832ZM12.7734 12.2324L16.3447 17.9482L16.4951 18.1885L16.7148 18.0098C18.5154 16.5416 19.6816 14.4359 19.9717 12.1309L20.0078 11.8496H12.5342L12.7734 12.2324ZM11.8496 10.1504H20.0078L19.9717 9.86816C19.7178 7.87751 18.8106 6.0274 17.3916 4.6084C15.9726 3.18939 14.1225 2.28216 12.1318 2.02832L11.8496 1.99219V10.1504Z" fill="#292D32" stroke="white" stroke-width="0.5"/>
</svg>
