<svg width="26" height="25" viewBox="0 0 26 25" fill="none" xmlns="http://www.w3.org/2000/svg">
<path d="M21.4304 1.69954L6.48746 0.392201C4.0149 0.17588 1.82861 2.01132 1.61238 4.48288L0.82798 13.4486C0.611746 15.9202 2.4471 18.1075 4.91865 18.3237L8.90343 18.6723C9.17838 18.6964 9.42105 18.4928 9.44511 18.2178C9.46916 17.9429 9.26554 17.7002 8.99059 17.6761L5.00581 17.3275C3.08316 17.1593 1.65596 15.4584 1.82417 13.5358L2.30353 8.05671L24.2198 9.97414L24.0891 11.4684C24.065 11.7434 24.2687 11.9861 24.5436 12.0101C24.8185 12.0342 25.0612 11.8305 25.0853 11.5556L25.5211 6.57461C25.7373 4.10306 23.9019 1.91577 21.4304 1.69954ZM6.4003 1.3884L21.3432 2.69573C23.0945 2.84895 24.421 4.278 24.5176 5.98492L2.70196 4.07629C3.0935 2.41208 4.64899 1.23518 6.4003 1.3884ZM2.39069 7.06052L2.565 5.06813L24.4813 6.98556L24.307 8.97794L2.39069 7.06052ZM3.80236 13.2069C3.70623 14.3057 4.52164 15.2775 5.62044 15.3736C6.71924 15.4698 7.69101 14.6544 7.78714 13.5556C7.88327 12.4568 7.06787 11.485 5.96906 11.3889C4.87026 11.2927 3.8985 12.1081 3.80236 13.2069ZM6.79095 13.4684C6.74284 14.0183 6.2565 14.4255 5.7076 14.3774C5.15869 14.3294 4.75045 13.844 4.79856 13.2941C4.84667 12.7442 5.333 12.337 5.88191 12.3851C6.43081 12.4331 6.83906 12.9185 6.79095 13.4684ZM18.5664 11.4872C14.9961 11.1748 11.837 13.8256 11.5247 17.3959C11.2123 20.9663 13.863 24.1253 17.4334 24.4377C21.0038 24.7501 24.1628 22.0993 24.4752 18.529C24.7876 14.9586 22.1368 11.7995 18.5664 11.4872ZM17.5206 23.4415C14.5001 23.1773 12.2566 20.5035 12.5208 17.4831C12.7851 14.4626 15.4588 12.2191 18.4793 12.4834C21.4997 12.7476 23.7432 15.4213 23.479 18.4418C23.2147 21.4623 20.541 23.7058 17.5206 23.4415ZM21.4554 16.9026C21.6295 17.1166 21.5968 17.4319 21.3819 17.6058L18.4613 19.9743C18.0728 20.2967 17.5831 20.4325 17.1089 20.391C16.6347 20.3495 16.1789 20.132 15.8481 19.7477L14.6067 18.2869C14.4283 18.0776 14.4539 17.7616 14.6644 17.5823C14.8746 17.4049 15.1907 17.4296 15.369 17.6399L16.6086 19.0985C16.9147 19.4555 17.4627 19.5015 17.8263 19.201L20.7512 16.8289C20.9661 16.656 21.2825 16.6877 21.4544 16.9025L21.4554 16.9026Z" fill="#FEFEFE"/>
</svg>
