<svg width="432" height="87" viewBox="0 0 432 87" fill="none" xmlns="http://www.w3.org/2000/svg">
<path d="M32.4307 76.4836L390.836 86.0244C413.391 86.6249 432 68.5045 432 45.9416C432 30.5533 423.193 16.5225 409.335 9.83232L399.219 4.94833C386.583 -1.15176 371.677 -0.197758 359.922 7.46336C347.377 15.6399 331.318 16.1379 318.29 8.75438L313.097 5.81117C301.531 -0.743469 287.258 -0.217697 276.206 7.17011L274.568 8.26465C263.32 15.7835 248.581 15.507 237.622 7.57151C227.183 0.0120583 213.253 -0.628332 202.164 5.94151L195.336 9.98694C184.399 16.4675 170.58 15.4378 160.723 7.40791C151.532 -0.0797529 138.821 -1.52547 128.183 3.70699L112.066 11.6345C100.775 17.1886 87.2679 15.5456 77.6371 7.44655C68.6226 -0.13416 56.151 -2.09825 45.243 2.34498L20.7487 12.3224C8.2026 17.4329 0 29.6311 0 43.1781C0 61.2334 14.3818 76.0031 32.4307 76.4836Z" fill="url(#paint0_linear_1462_2739)"/>
<defs>
<linearGradient id="paint0_linear_1462_2739" x1="215.508" y1="5.73562" x2="215.508" y2="97.7356" gradientUnits="userSpaceOnUse">
<stop stop-color="#8B8FFF"/>
<stop offset="1" stop-color="#020AD4"/>
</linearGradient>
</defs>
</svg>
