<svg width="13" height="12" viewBox="0 0 13 12" fill="none" xmlns="http://www.w3.org/2000/svg">
<path d="M0 4.50143C0 4.42704 0 4.35264 0 4.27824C0.643143 2.98583 1.28935 1.69492 1.92698 0.399793C2.06298 0.123555 2.27691 0.0012224 2.57011 0.00105058C5.04023 -0.000393703 7.51034 -0.000231926 9.98046 0.000827438C10.2748 0.000953513 10.4888 0.125652 10.6241 0.399909C11.2629 1.69452 11.9085 2.98578 12.5517 4.27824V4.50143C12.4753 4.62589 12.4159 4.76553 12.32 4.87256C10.5549 6.84395 8.78444 8.81063 7.01725 10.7802C6.39619 11.4724 6.15288 11.4723 5.53262 10.7804C3.79101 8.8378 2.04581 6.89836 0.306355 4.95379C0.186041 4.81929 0.101289 4.65296 0 4.50143ZM6.27594 9.01873C6.83174 7.6478 7.36066 6.34319 7.89512 5.02489H4.65504C5.19435 6.35372 5.72142 7.65243 6.27594 9.01873ZM4.65806 3.76038H7.85845C7.86042 3.71983 7.86978 3.68979 7.86193 3.66525C7.61949 2.90761 7.37951 2.1491 7.12439 1.39572C7.10173 1.3288 6.98016 1.2563 6.90227 1.25369C6.48469 1.23972 6.06604 1.2381 5.64867 1.25492C5.56813 1.25817 5.45096 1.34636 5.42058 1.42306C5.30842 1.70627 5.22548 2.00106 5.13174 2.29156C4.97623 2.77352 4.82086 3.25553 4.65806 3.76038ZM8.38873 1.24795C8.65934 2.08586 8.90933 2.86678 9.16772 3.64492C9.18548 3.69842 9.26532 3.76696 9.31736 3.76789C9.83309 3.77706 10.3491 3.77344 10.861 3.77344C10.868 3.73008 10.879 3.7083 10.8725 3.69517C10.4873 2.91668 10.1024 2.13801 9.71025 1.36303C9.68354 1.31024 9.60195 1.25454 9.54446 1.253C9.17565 1.2431 8.80644 1.24795 8.38873 1.24795ZM3.34678 3.7657C3.61469 2.93699 3.88188 2.11052 4.16107 1.2469C3.77016 1.2469 3.43748 1.25583 3.10563 1.24312C2.94072 1.23681 2.85943 1.2996 2.78908 1.44381C2.44465 2.14984 2.08863 2.8502 1.73865 3.55352C1.70773 3.61565 1.69075 3.68471 1.6619 3.7657L3.34678 3.7657ZM2.01811 5.00584C2.79988 5.87427 3.52913 6.68437 4.25838 7.49446C3.98759 6.68553 3.67386 5.90781 3.35046 5.13412C3.32638 5.07652 3.23405 5.01355 3.17154 5.01151C2.81309 4.99984 2.45407 5.00584 2.01811 5.00584ZM8.24906 7.45636C8.26215 7.47127 8.27525 7.48618 8.28835 7.50108C9.02081 6.68639 9.75326 5.8717 10.5313 5.00629C10.0924 5.00629 9.72532 4.99993 9.35891 5.01279C9.30036 5.01485 9.21767 5.09178 9.19204 5.15324C8.87278 5.91889 8.56201 6.68808 8.24906 7.45636Z" fill="white"/>
</svg>
