<svg width="432" height="83" viewBox="0 0 432 83" fill="none" xmlns="http://www.w3.org/2000/svg">
<path d="M30.8275 73.1726L392.926 82.3927C414.343 82.938 432 65.7251 432 44.301C432 29.4412 423.361 15.937 409.871 9.7072L399.125 4.74529C386.478 -1.09479 371.741 -0.173649 359.92 7.19576C347.297 15.0648 331.42 15.5468 318.343 8.458L313.044 5.58499C301.437 -0.706978 287.328 -0.197944 276.205 6.91413L274.538 7.97984C263.221 15.2157 248.666 14.947 237.624 7.29849C227.111 0.0162191 213.356 -0.604463 202.23 5.70127L195.22 9.67368C184.269 15.8803 170.657 14.8824 160.728 7.14492C151.473 -0.067225 138.949 -1.46434 128.332 3.5309L111.882 11.2707C100.626 16.5664 87.336 14.9797 77.6434 7.18313C68.5718 -0.113976 56.2922 -2.00681 45.4442 2.21983L20.1487 12.0756C7.99989 16.8091 0 28.5118 0 41.5501C0 58.7067 13.6765 72.7359 30.8275 73.1726Z" fill="url(#paint0_linear_1462_2738)"/>
<defs>
<linearGradient id="paint0_linear_1462_2738" x1="215.508" y1="5.54148" x2="215.508" y2="93.5415" gradientUnits="userSpaceOnUse">
<stop stop-color="#020AD4"/>
<stop offset="1" stop-color="#9B9FFF"/>
</linearGradient>
</defs>
</svg>
