<svg width="410" height="132" viewBox="0 0 410 132" fill="none" xmlns="http://www.w3.org/2000/svg">
<path d="M54.637 118.566L339.602 130.989C377.976 132.662 410 102.004 410 63.5942V53.109C410 39.103 403.592 25.8668 392.605 17.18L380.15 7.33213C368.514 -1.8678 351.77 -0.618359 341.628 10.2066C330.889 21.6694 312.905 22.2975 301.392 11.6119L297.83 8.305C287.591 -1.19763 271.571 -0.536867 262.15 9.7766L260.945 11.0957C251.342 21.6088 234.683 21.2783 225.505 10.3926C216.692 -0.0598192 200.865 -0.851176 191.053 8.66988L186.818 12.7801C176.893 22.4102 160.769 21.1396 152.475 10.0741C144.686 -0.318645 129.832 -2.18132 119.717 5.96638L108.773 14.7829C97.8668 23.5687 81.8268 21.4337 73.5984 10.101C65.8752 -0.535906 51.1311 -3.17679 40.1961 4.11816L21.3743 16.6744C8.02024 25.5832 0 40.5747 0 56.6277V61.4947C0 92.0764 24.0843 117.234 54.637 118.566Z" fill="url(#paint0_linear_293_2334)"/>
<defs>
<linearGradient id="paint0_linear_293_2334" x1="204.533" y1="7.55859" x2="204.533" y2="150.559" gradientUnits="userSpaceOnUse">
<stop stop-color="#8B8FFF"/>
<stop offset="1" stop-color="#020AD4"/>
</linearGradient>
</defs>
</svg>
