<svg width="660" height="660" viewBox="0 0 660 660" fill="none" xmlns="http://www.w3.org/2000/svg">
<g clip-path="url(#clip0_1292_1293)">
<rect width="660" height="660" fill="white"/>
<path d="M319.898 682.396C308.995 681.248 298.071 680.261 287.191 678.922C242.17 673.382 200.105 658.974 161.379 635.443C88.853 591.373 37.8838 529.276 14.7413 447.592C-20.3727 323.653 7.41965 213.449 96.2449 120.028C137.872 76.2465 189.45 47.827 248.113 32.7131C259.687 29.7311 269.848 36.9536 269.4 48.5315C267.674 93.1781 291.532 120.812 330.107 136.836C369.844 153.342 421.987 147.144 455.921 112.959C465.251 103.559 471.739 92.5166 476.152 80.0743C479.199 71.4807 484.677 67.5301 492.554 67.7534C500.42 67.9763 506.276 72.0388 510.105 78.5782C513.664 84.658 512.64 90.8805 508.806 96.6662C498.337 112.468 490.582 129.352 487.182 148.179C478.282 197.459 521.877 244.255 571.559 238.888C585.84 237.345 598.635 232.684 610.376 224.51C621.688 216.635 632.796 220.224 637.728 233.127C654.805 277.803 662.264 324.084 659.403 371.789C650.935 513.009 553.907 632.335 417.025 670.258C395.023 676.353 372.592 680.081 349.757 681.247C346.597 681.409 343.458 682.003 340.309 682.396L319.898 682.396ZM323.333 169.719C332.982 208.664 319.318 238.342 288.103 247.585C258.625 256.314 227.591 240.686 217.915 212.138C213.092 197.907 213.498 183.71 219.932 170.126C229.701 149.502 246.656 138.822 270.13 136.769C251.778 117.746 240.686 96.2385 236.882 71.1631C152.22 95.9369 55.7082 180.301 36.8606 307.016C18.2012 432.467 78.5281 553.178 189.364 613.082C302.906 674.448 440.074 654.435 531.317 569.916C628.515 479.883 642.983 351.135 611.995 261.848C591.453 270.834 570.182 274.414 547.772 270.988C525.423 267.571 506.196 257.905 488.688 242.805C499.786 270.934 495.484 290.627 475.994 303.209C458.934 314.223 436.143 311.426 422.263 296.616C408.297 281.715 406.841 259.174 418.773 242.585C432.142 223.999 452.319 220.652 479.597 233.208C461.226 210.842 452.607 185.988 452.992 157.385C411.257 180.244 368.496 184.673 323.333 169.719Z" fill="#007AFF"/>
<path d="M456.854 37.153C456.799 52.0829 444.862 64.2642 430.462 64.0855C415.826 63.9038 403.973 51.7584 404.041 37.0126C404.109 22.1453 416.03 10.0878 430.595 10.1533C445.299 10.2195 456.91 22.1578 456.854 37.153Z" fill="#007AFF"/>
<path d="M611.793 141.129C596.995 140.715 585.332 128.41 585.837 113.744C586.35 98.8372 598.712 86.6375 612.788 87.1466C627.241 87.6694 639.421 100.567 638.846 114.741C638.234 129.845 626.251 141.533 611.793 141.129Z" fill="#007AFF"/>
<path d="M598.635 19.3767C598.693 30.0942 590.49 38.7244 580.073 38.9049C569.347 39.0908 560.583 30.4559 560.502 19.6229C560.423 8.89386 569.315 -0.131005 579.835 0.00143952C590.328 0.133548 598.577 8.63521 598.635 19.3767Z" fill="#007AFF"/>
<path d="M451.895 472.721C451.968 449.262 470.855 430.388 494.242 430.404C517.362 430.421 536.682 449.666 536.806 472.806C536.931 496.035 517.232 515.587 493.861 515.43C470.549 515.274 451.823 496.216 451.895 472.721Z" fill="#007AFF"/>
<path d="M142.106 295.569C165.625 295.667 184.282 314.407 184.273 337.925C184.264 361.347 165.452 380.234 142.052 380.316C118.579 380.398 98.9909 360.783 99.3688 337.574C99.7512 314.089 118.693 295.472 142.106 295.569Z" fill="#007AFF"/>
<path d="M322.644 344.837C346.008 344.858 365.093 363.791 365.201 387.055C365.307 410.079 346.108 429.385 322.854 429.639C299.404 429.894 280.23 410.678 280.274 386.964C280.318 363.463 299.072 344.816 322.644 344.837Z" fill="#007AFF"/>
<path d="M271.432 503.393C294.801 503.522 313.834 522.644 313.707 545.865C313.58 568.91 294.11 588.278 271.098 588.251C247.627 588.224 228.553 568.87 228.701 545.234C228.847 521.874 247.855 503.263 271.432 503.393Z" fill="#007AFF"/>
</g>
<defs>
<clipPath id="clip0_1292_1293">
<rect width="660" height="660" fill="white"/>
</clipPath>
</defs>
</svg>
