<svg width="660" height="660" viewBox="0 0 660 660" fill="none" xmlns="http://www.w3.org/2000/svg">
<rect width="660" height="660" fill="white"/>
<path d="M321.651 657C313.686 656.233 305.715 655.515 297.756 654.692C238.56 648.567 184.822 627.834 136.982 592.708C75.0418 547.229 33.6326 487.099 12.246 413.26C8.64506 400.828 12.9663 391.883 23.6932 388.952C29.7773 387.29 34.6805 389.581 39.2661 393.205C61.1823 410.522 85.215 424.016 111.826 432.623C153.038 445.953 194.858 447.541 237.108 438.263C253.297 434.708 260.33 439.722 262.691 455.986C273.297 529.035 309.199 585.141 374.195 621.638C383.294 626.748 386.864 633.611 384.683 641.655C382.543 649.549 376.86 653.794 367.827 654.527C358.858 655.254 349.905 656.168 340.944 657L321.651 657ZM60.832 447.718C87.7285 507.523 130.244 553.074 186.924 585.424C226.43 607.972 269.053 620.121 314.708 621.743C270.064 581.676 242.234 532.416 231.414 473.566C171.264 483.517 114.868 474.399 60.832 447.718Z" fill="#007AFF"/>
<path d="M435 411.065C430.869 423.288 423.898 432.564 410.467 435.611C394.674 439.195 377.914 429.601 373.6 414.254C368.961 397.755 377.678 380.478 393.237 375.331C409.447 369.969 426.852 378.013 432.723 393.561C433.418 395.401 434.238 397.194 435 399.009V411.065Z" fill="#007AFF"/>
<path d="M209.424 298.931C226.344 298.838 239.677 311.949 239.771 328.77C239.865 345.573 226.59 359.1 209.915 359.194C193.313 359.289 179.559 345.787 179.434 329.272C179.308 312.651 192.78 299.022 209.424 298.931Z" fill="#007AFF"/>
<path d="M363.552 562.232C353.327 562.239 345.732 554.945 345.8 545.181C345.866 535.637 354.1 527.877 363.837 528.182C373.496 528.484 381.352 536.042 381.494 545.167C381.641 554.57 373.593 562.224 363.552 562.232Z" fill="#007AFF"/>
</svg>
